<?xml version="1.0" encoding="UTF-8"?>
<svg xmlns="http://www.w3.org/2000/svg" viewBox="0 0 1500 200">
  <defs>
    <style>
      .cls-1 {
        letter-spacing: 0em;
      }

      .cls-2, .cls-3 {
        fill: #fff;
      }

      .cls-3 {
        font-family: Roboto, 'Roboto';
        font-size: 47px;
        font-weight: 300;
      }

      .cls-4 {
        fill: none;
        stroke-width: 1.77px;
      }

      .cls-4, .cls-5 {
        stroke: #fff;
        stroke-miterlimit: 10;
      }

      .cls-6 {
        letter-spacing: 0em;
      }

      .cls-7 {
        letter-spacing: 0em;
      }

      .cls-8 {
        fill: #848482;
      }

      .cls-9 {
        letter-spacing: -.01em;
      }

      .cls-10, .cls-5 {
        fill: #c03;
      }

      .cls-11 {
        letter-spacing: .02em;
      }

      .cls-5 {
        stroke-width: 6px;
      }

      .cls-12 {
        letter-spacing: 0em;
      }

      .cls-13 {
        letter-spacing: 0em;
      }
    </style>
  </defs>
  <g id="Layer_2" data-name="Layer 2">
    <g>
      <rect class="cls-8" x="-8.06" y="46.44" width="1584" height="117.69"/>
      <rect class="cls-10" x="-8.06" y="40.8" width="1584" height="117.69"/>
    </g>
  </g>
  <g id="Layer_1" data-name="Layer 1">
    <g>
      <g>
        <circle class="cls-8" cx="436" cy="100.54" r="96.16"/>
        <circle class="cls-5" cx="436" cy="100.54" r="67.66"/>
        <g>
          <path class="cls-2" d="m367.55,134.11l3.76,6.79-1.81,1-2.48-4.48-2.84,1.57,2.27,4.1-1.81,1-2.27-4.1-3.23,1.79,2.5,4.52-1.81,1-3.78-6.82,11.51-6.37Z"/>
          <path class="cls-2" d="m375.56,150.81c-.22-.88-.61-1.74-1.17-2.47-.55-.72-1.57-1.41-2.71-.54-1.81,1.38,2.45,5.38-1.05,8.06-2.29,1.75-4.54.6-6.16-1.51-.87-1.14-1.11-1.76-1.64-2.99l2.04-1.25c.16,1.02.53,2.03,1.16,2.86.61.79,1.82,1.55,2.77.83,1.99-1.52-2.33-5.48,1.13-8.12,2.34-1.78,4.57-.62,5.98,1.22.69.9,1.21,1.83,1.54,2.79l-1.87,1.12Z"/>
          <path class="cls-2" d="m380.44,155.59l-2.7-2.63,1.45-1.48,7.28,7.11-1.45,1.48-2.7-2.63-7.74,7.93-1.89-1.84,7.74-7.93Z"/>
          <path class="cls-2" d="m390.18,161.36l2.41,1.75-3.53,13.68-2.37-1.71.85-3.11-4.32-3.13-2.7,1.77-2.21-1.6,11.87-7.65Zm-.37,2.99l-.03-.02-4.72,3.28,3.11,2.25,1.64-5.51Z"/>
          <path class="cls-2" d="m398.83,167.12l4.13,2.02c1.52.74,3.59,2.3,2.33,4.89-.69,1.41-2.12,1.92-3.65,1.49l-.02.03c1.53.94,2.11,2.56,1.39,4.02-1.46,2.98-4.35,2.11-5.84,1.38l-4.13-2.02,5.78-11.82Zm-2.5,11.12l1.12.55c1.1.54,2.57.92,3.24-.45.75-1.54-.38-2.39-1.57-2.97l-1.12-.55-1.67,3.42Zm2.53-5.18l.96.47c1,.49,2.34.87,2.94-.35.67-1.37-.48-2.06-1.57-2.59l-.91-.45-1.42,2.91Z"/>
          <path class="cls-2" d="m409.92,172.15l2.52.8-3.35,10.56,4.87,1.54-.63,1.98-7.38-2.34,3.98-12.54Z"/>
          <path class="cls-2" d="m419.6,174.91l2.59.52-2.6,12.89-2.59-.52,2.6-12.89Z"/>
          <path class="cls-2" d="m432.64,179.08c-.8-.43-1.7-.71-2.62-.79-.9-.08-2.1.22-2.22,1.65-.19,2.27,5.64,1.8,5.26,6.19-.24,2.87-2.61,3.77-5.25,3.55-1.43-.12-2.05-.36-3.32-.79l.44-2.35c.86.56,1.87.97,2.9,1.06,1,.08,2.37-.31,2.47-1.49.21-2.5-5.62-1.95-5.26-6.29.25-2.93,2.61-3.81,4.92-3.61,1.13.1,2.17.33,3.1.73l-.43,2.14Z"/>
          <path class="cls-2" d="m436.86,176.84l2.63-.21.42,5.3,5.26-.42-.42-5.3,2.63-.21,1.04,13.11-2.63.21-.46-5.75-5.26.42.46,5.75-2.63.21-1.04-13.11Z"/>
          <path class="cls-2" d="m450.95,175.3l7.53-1.89.5,2.01-4.97,1.24.79,3.14,4.55-1.14.5,2.01-4.55,1.14.9,3.58,5.01-1.25.5,2.01-7.57,1.89-3.19-12.76Z"/>
          <path class="cls-2" d="m461.65,172.44l3.3-1.44c3.69-1.62,7.5-1.8,9.59,2.98,2.09,4.78-.63,7.45-4.32,9.07l-3.3,1.44-5.27-12.05Zm6.86,9.09l1.35-.59c2.02-.88,3.31-3.24,2.17-5.86-1.15-2.62-3.76-3.27-5.78-2.39l-1.35.59,3.61,8.25Z"/>
          <path class="cls-2" d="m482.72,160.65l1.85-1.43,8.07,10.39-2.08,1.62-6.23-8.02-.65,2.79-2.09-.55,1.14-4.8Z"/>
          <path class="cls-2" d="m496.35,163.17c.7-.29,1.36-.65,1.97-1.29,1.58-1.65.59-3.66-.77-5.08h-.05c.24,1.09-.04,1.95-.81,2.75-1.72,1.79-3.8,1.68-5.56,0-2.05-1.97-2.45-4.28-.38-6.43,2.53-2.64,5.28-1.12,7.51,1.02,2.57,2.47,4.6,6.01,1.65,9.08-.67.69-1.4,1.24-2.26,1.67l-1.3-1.72Zm-1.24-8.4c-.9-.86-2.05-1.24-2.95-.3-.85.88-.34,2.07.5,2.88.92.89,2.15,1.33,3.02.42.89-.92.38-2.09-.57-3Z"/>
          <path class="cls-2" d="m501.97,143.25c-.65.39-1.25.84-1.76,1.57-1.32,1.86-.05,3.71,1.5,4.91h.05c-.38-1.04-.24-1.94.4-2.85,1.44-2.03,3.52-2.21,5.5-.8,2.32,1.65,3.04,3.88,1.31,6.31-2.12,2.98-5.06,1.88-7.58.08-2.9-2.07-5.43-5.28-2.95-8.75.56-.78,1.21-1.43,1.99-1.98l1.54,1.51Zm2.44,8.13c1.01.72,2.21.93,2.96-.13.71-1,.04-2.1-.91-2.78-1.04-.74-2.32-1-3.05.02-.74,1.04-.08,2.12,1,2.89Z"/>
          <path class="cls-2" d="m511.87,143.09c.59-.48,1.11-1.02,1.52-1.81,1.04-2.03-.49-3.68-2.2-4.64l-.05.02c.54.97.52,1.88.02,2.87-1.13,2.21-3.16,2.7-5.32,1.59-2.53-1.3-3.58-3.4-2.22-6.05,1.67-3.26,4.74-2.59,7.49-1.19,3.17,1.62,6.14,4.43,4.2,8.22-.44.86-.98,1.59-1.68,2.25l-1.74-1.27Zm-3.6-7.69c-1.11-.57-2.32-.59-2.91.56-.56,1.09.27,2.08,1.31,2.62,1.14.58,2.44.65,3.01-.47.58-1.14-.23-2.11-1.41-2.71Z"/>
        </g>
        <path class="cls-2" d="m355.84,122.15c-1.16,0-2.1-.94-2.1-2.1s.94-2.1,2.1-2.1,2.1.94,2.1,2.1-.94,2.1-2.1,2.1Z"/>
        <path class="cls-2" d="m516.35,122.15c-1.16,0-2.1-.94-2.1-2.1s.94-2.1,2.1-2.1,2.1.94,2.1,2.1-.94,2.1-2.1,2.1Z"/>
        <g>
          <path class="cls-2" d="m346.16,102.73l.14-5.12c.05-1.89.68-4.71,3.89-4.62,1.74.05,2.93,1.26,3.2,3.01h.04c.24-1.99,1.63-3.32,3.43-3.27,3.7.1,4.15,3.44,4.1,5.28l-.14,5.12-14.66-.41Zm6-2.78l.03-1.2c.03-1.24-.2-2.78-1.71-2.82-1.7-.05-1.87,1.44-1.91,2.78l-.03,1.13,3.61.1Zm6.43.18l.04-1.39c.04-1.37-.25-3.03-1.95-3.08-1.91-.05-2.25,1.49-2.29,2.96l-.04,1.39,4.24.12Z"/>
          <path class="cls-2" d="m348.09,82.37l.73-3.24,15.57-2.39-.72,3.18-3.56.49-1.31,5.8,3,1.99-.67,2.97-13.05-8.8Zm3.23-.93v.04s5.43,3.4,5.43,3.4l.94-4.18-6.37.74Z"/>
          <path class="cls-2" d="m351.93,68.7l1.29-2.9c1.28-2.88,2.71-6.36,6.43-4.71,1.57.7,2.41,2.33,1.88,4.15l.04.02c.38-.7,1.3-.8,2.01-.81l6.2.18-1.33,3-4.9-.24c-1.17-.06-1.71.12-2.21,1.25l-.38.86,5.57,2.47-1.19,2.69-13.4-5.95Zm6.92-.15l.39-.88c.59-1.33,1.07-2.93-.6-3.67-1.61-.72-2.41.72-3.01,2.07l-.39.88,3.61,1.6Z"/>
          <path class="cls-2" d="m359.07,53.93l2.08-2.96,12.19,1.73.02-.03-8.97-6.3,1.62-2.3,12,8.43-2.07,2.94-12.2-1.71-.02.03,8.97,6.3-1.62,2.3-12-8.43Z"/>
          <path class="cls-2" d="m370.54,38.87l2.15-2,4.04,4.33,4.3-4.01-4.04-4.33,2.15-2.01,10,10.73-2.15,2.01-4.38-4.7-4.3,4.01,4.38,4.7-2.15,2.01-10-10.73Z"/>
          <path class="cls-2" d="m388.37,24.45l2.84-1.71,12.49,9.6-2.79,1.68-2.81-2.23-5.09,3.06.63,3.54-2.61,1.57-2.66-15.51Zm2.9,1.69l-.04.02,1.3,6.28,3.67-2.21-4.94-4.09Z"/>
          <path class="cls-2" d="m400.88,17.78l2.98-1.08c2.96-1.07,6.47-2.44,7.85,1.39.58,1.62-.02,3.36-1.69,4.23v.04c.79-.21,1.49.38,1.99.9l4.16,4.6-3.08,1.11-3.21-3.71c-.77-.89-1.26-1.15-2.43-.73l-.89.32,2.07,5.73-2.77,1-4.97-13.8Zm4.89,4.89l.91-.33c1.36-.49,2.85-1.25,2.23-2.97-.6-1.66-2.19-1.24-3.57-.74l-.91.33,1.34,3.72Z"/>
          <path class="cls-2" d="m419.04,14.74l-4.14.74-.41-2.27,11.17-2,.41,2.27-4.14.74,2.18,12.16-2.89.52-2.18-12.16Z"/>
          <path class="cls-2" d="m438.94,10.64l2.93.29-.83,8.43c-.25,2.49.39,4.2,2.63,4.42,2.24.22,3.19-1.33,3.44-3.82l.83-8.43,2.93.29-.92,9.33c-.39,3.91-2.76,5.3-6.5,4.93s-5.8-2.2-5.41-6.11l.92-9.33Z"/>
          <path class="cls-2" d="m457.53,13.19l3.44,1.1,1.99,12.15h.04s3.33-10.44,3.33-10.44l2.68.86-4.46,13.97-3.42-1.09-2.01-12.15h-.04s-3.33,10.44-3.33,10.44l-2.68-.86,4.46-13.97Z"/>
          <path class="cls-2" d="m474.44,19.41l2.64,1.3-6.5,13.14-2.64-1.3,6.5-13.14Z"/>
          <path class="cls-2" d="m481.2,22.7l2.6,1.79-3.42,11.62.03.02,9.59-7.38,2.41,1.65-12.38,9.28-2.98-2.05,4.15-14.94Z"/>
          <path class="cls-2" d="m496.26,33.91l6.15,6.1-1.63,1.64-4.06-4.02-2.54,2.57,3.71,3.68-1.63,1.64-3.71-3.68-2.9,2.92,4.09,4.05-1.63,1.64-6.17-6.13,10.33-10.41Z"/>
          <path class="cls-2" d="m506.31,44.54l1.84,2.59c1.83,2.57,4.09,5.57.77,7.93-1.4,1-3.24.88-4.53-.49l-.03.02c.41.69.03,1.53-.33,2.14l-3.31,5.24-1.9-2.67,2.71-4.09c.65-.97.77-1.53.05-2.54l-.55-.77-4.97,3.53-1.7-2.4,11.95-8.5Zm-3.4,6.02l.56.79c.84,1.18,1.97,2.41,3.46,1.35,1.44-1.02.61-2.44-.24-3.64l-.56-.79-3.22,2.29Z"/>
          <path class="cls-2" d="m516.21,66.45c-.04-1.01-.27-2.03-.72-2.96-.43-.91-1.39-1.9-2.83-1.21-2.29,1.1,1.44,6.44-2.99,8.55-2.9,1.39-5.1-.38-6.37-3.06-.69-1.44-.81-2.18-1.11-3.64l2.51-.89c-.06,1.15.12,2.34.61,3.39.48,1,1.63,2.11,2.83,1.54,2.52-1.2-1.29-6.51,3.09-8.6,2.96-1.41,5.13.37,6.25,2.7.54,1.14.9,2.27,1.04,3.39l-2.3.79Z"/>
          <path class="cls-2" d="m520.84,71.18l.92,2.8-13.94,4.56-.92-2.8,13.94-4.56Z"/>
          <path class="cls-2" d="m521.62,82.67l-.78-4.13,2.27-.43,2.12,11.15-2.27.43-.78-4.13-12.14,2.31-.55-2.89,12.14-2.31Z"/>
          <path class="cls-2" d="m516.85,98.3l8.78-5.5.06,3.44-6.1,3.56,6.21,3.43.05,3.11-8.95-5.11-5.8.09-.05-2.94,5.8-.09Z"/>
        </g>
        <path class="cls-2" d="m436.05,156.79c12.97-7.61,25.02-13.62,34.35-25.32,4.91-6.16,8.3-13,8.31-21.11v-7.21h-42.68"/>
        <path class="cls-2" d="m436.05,55.8s-33.83,6.02-39.75,6.02c-2.06,1.69-2.95,5.92-2.93,8.62.12,13.87.29,18.85-.02,32.72h42.67"/>
        <path class="cls-8" d="m436.02,103.15h-42.67v4.14c-.22,9.87,3.23,18.08,9.42,25.46,9.21,10.98,20.77,16.64,33.28,24.05"/>
        <path class="cls-8" d="m436.02,103.15h42.68c.02-15.08-.03-18.19.05-33.27.01-2.29-.8-6.29-2.5-7.73-6.47,0-40.2-6.36-40.2-6.36"/>
        <line class="cls-4" x1="393.35" y1="103.15" x2="478.7" y2="103.15"/>
        <line class="cls-4" x1="436.02" y1="55.8" x2="436.02" y2="156.79"/>
        <g>
          <path class="cls-2" d="m426.33,127.04c.44-.21.72-.65.75-1.13.03-.68.03-1.79-.15-3.15-.13-1-.28-2.11-.97-3.7-.85-1.95-1.89-2.94-1.92-3.1,0-.05.85.32,1.49,1.03s1.04,1.54,1.05,1.48c.07-.31-.43-1.63-.62-2.01-.82-1.63-2.42-3.11-4.78-4.15-4.27-1.87-9.25-1.11-11.44.64-.23.19-.04.52-.27.71-2.64,2.22-3.79,5.9-4.22,7.06-.43,1.17,3.4,5.96,10.88,7.15,1.11.18,2.36.08,3.45,0,.12,0,.16-2.87-.59-5.94-1.76-7.14-8.27-8.12-7.65-8.27.14-.03,6.71,0,9.22,7.58,1.02,3.08.93,7.02,1.05,7.02,1.07,0,2.33-.43,3.27-.69.62-.18,1.11-.37,1.45-.53Z"/>
          <path class="cls-2" d="m401.06,121.57c.08-.43.25-.83.53-1.17.82-1.02,1.78-1.06,2.99-1.06-.03.07-.53,1.33-.55,1.38-.22.58-.08,1.28.41,2.11,1.47,2.46,5.71,5.53,11.52,6.43.49.08,1.06.11,1.76.11.83,0,1.68-.05,2.29-.09l-.04-.02c.16.25.93.41,1.38.41.06,0,.29,0,.31,0,.9-.05,2.11-.28,3.69-.72,2.8-.78,3.09-1.95,3.1-2.28,0-.19,0-.32-.01-1.31.88.08,3.65,1.34,3.3,3.67-.35,2.35-5.08,3.78-6.88,4.12-4.44.82-10.99-.03-15.18-1.67-1.9-.74-3.7-1.83-5.27-3.11s-2.95-3.04-3.33-5.14c-.09-.53-.12-1.1-.01-1.64Z"/>
        </g>
        <path class="cls-2" d="m457.05,66.19l-.02-7.18-1.79-.4.02,7.59-6.74,4.45.48-.09c4.73-.92,9.6-.92,14.33,0l.45.09-6.73-4.46Z"/>
        <path class="cls-2" d="m458.68,79.97l3.47-2.08c1.02-.61,1.64-1.71,1.64-2.89v-2.64l-.45-.09c-4.73-.91-9.59-.9-14.31.04l-.5.1.02,2.78c0,1.08.53,2.09,1.41,2.72,1.38.98,3.28,2.34,3.37,2.4l.64,3.07c.26.78,1.04,1.25,2.08,1.25,2.27,0,4.07,2.06,3.64,4.4-.27,1.47-1.46,2.66-2.93,2.94-2.35.44-4.41-1.37-4.41-3.64,0-.17-.01-.46.01-.68.11-1.03-.42-1.78-.98-2.1-.4-.23-.76-.36-1.23-.36-.25,0-1.16.06-1.25.74-.03.23.61.18.67.92.02.32-.2,1.33-.25,1.97-.08.94.05,1.87.34,2.7.79,2.22,3.45,4.21,6.39,4.21,4.08,0,7.41-3.33,7.41-7.41,0-3.32-2.26-6.23-5.38-7.13l.23-.87c.16-.1.29-.23.37-.37Zm-2.55-4.53c-.58,0-1.05-.47-1.05-1.05s.47-1.05,1.05-1.05,1.05.47,1.05,1.05-.47,1.05-1.05,1.05Z"/>
        <path class="cls-2" d="m436.05,158.51l-.75-.44c-1.9-1.13-3.81-2.23-5.65-3.29-10.3-5.95-20.04-11.57-28.01-21.08-6.79-8.1-9.99-16.75-9.77-26.44.26-11.7.18-20.08.08-30.69-.02-1.95-.04-3.98-.06-6.12-.02-2.76.88-7.65,3.47-9.77l.41-.34h.53c5.72,0,39.15-5.94,39.49-6l.27-.05.27.05c.34.06,33.67,6.34,39.93,6.34h.54l.41.35c2.23,1.88,3.05,6.44,3.03,8.86-.06,9.79-.05,17.65-.05,25.96,0,4.53,0,9.23,0,14.51-.01,7.56-2.83,14.76-8.63,22.03-8.3,10.41-18.75,16.43-29.8,22.8-1.63.94-3.29,1.89-4.95,2.87l-.75.44Zm-39.14-95.23c-1.3,1.45-2.08,4.71-2.06,7.14.02,2.14.04,4.17.06,6.12.1,10.64.19,19.04-.08,30.79-.2,8.94,2.77,16.95,9.08,24.47,7.64,9.11,17.15,14.6,27.22,20.42,1.61.93,3.26,1.88,4.93,2.86,1.42-.83,2.83-1.64,4.22-2.44,10.81-6.23,21.01-12.11,28.96-22.08,5.44-6.82,7.97-13.24,7.98-20.19,0-5.28,0-9.98,0-14.5,0-8.32,0-16.18.05-25.98.01-2.05-.69-5.01-1.67-6.25-7.49-.33-36.26-5.7-39.57-6.32-3.32.59-32.11,5.67-39.13,5.98Z"/>
        <path class="cls-10" d="m404.6,71.02h14.4c3.97,0,7.87,1.28,7.87,5.64,0,3.15-1.67,4.82-4.72,5.61v.07c3.18.43,5.15,2.92,5.15,5.21,0,5.77-4.66,6.36-9.41,6.36h-13.28v-22.89Zm8.26,8.76h2.2c1.54,0,3.21-.46,3.21-2.2s-1.44-2.23-3.02-2.23h-2.39v4.43Zm0,9.41h2.3c1.61,0,3.34-.59,3.34-2.36,0-1.97-1.64-2.33-3.28-2.33h-2.36v4.69Z"/>
        <path class="cls-10" d="m451.84,123.98c0,2.16.63,3.8,2.73,3.8,2.3,0,2.78-1.55,2.78-3.78l-.03-13.61,8.59-.02.03,13.45c.02,7.41-4.53,9.85-11.45,9.87-6.39.02-11.42-2.59-11.44-9.35l-.04-13.9,8.79-.02.03,13.58Z"/>
      </g>
      <text class="cls-3" transform="translate(589.12 112.92)"><tspan x="0" y="0">Barnha</tspan><tspan class="cls-11" x="149.18" y="0">r</tspan><tspan x="166.44" y="0">t </tspan><tspan class="cls-1" x="194.71" y="0">U</tspan><tspan x="225.46" y="0">ni</tspan><tspan class="cls-9" x="263.72" y="0">v</tspan><tspan x="284.35" y="0">e</tspan><tspan class="cls-12" x="309.47" y="0">r</tspan><tspan class="cls-13" x="326.2" y="0">sity Ca</tspan><tspan class="cls-7" x="465.04" y="0">t</tspan><tspan class="cls-6" x="481.97" y="0">alog</tspan></text>
    </g>
  </g>
</svg>
