<?xml version="1.0" encoding="utf-8"?>
<!-- Generator: Adobe Illustrator 27.4.1, SVG Export Plug-In . SVG Version: 6.00 Build 0)  -->
<svg version="1.1" id="Layer_1" xmlns="http://www.w3.org/2000/svg" xmlns:xlink="http://www.w3.org/1999/xlink" x="0px" y="0px"
	 viewBox="0 0 800 800" style="enable-background:new 0 0 800 800;" xml:space="preserve">
<style type="text/css">
	.st0{fill:#FFFFFF;}
	.st1{fill:#848482;}
	.st2{fill:#CC0033;stroke:#FFFFFF;stroke-width:6;stroke-miterlimit:10;}
	.st3{fill:none;stroke:#FFFFFF;stroke-width:1.769;stroke-miterlimit:10;}
	.st4{fill:#CC0033;}
</style>
<g>
	<circle class="st0" cx="400" cy="400" r="400"/>
	<g>
		<circle class="st1" cx="400" cy="400" r="395"/>
		<circle class="st2" cx="400" cy="400" r="277.9"/>
		<g>
			<path class="st0" d="M118.8,537.9l15.4,27.9l-7.4,4.1l-10.2-18.4l-11.6,6.4l9.3,16.9l-7.4,4.1l-9.3-16.9l-13.3,7.3L94.5,588
				l-7.4,4.1l-15.5-28L118.8,537.9z"/>
			<path class="st0" d="M151.7,606.5c-0.9-3.6-2.5-7.1-4.8-10.1c-2.3-3-6.5-5.8-11.1-2.2c-7.4,5.7,10.1,22.1-4.3,33.1
				c-9.4,7.2-18.7,2.5-25.3-6.2c-3.6-4.7-4.6-7.2-6.7-12.3l8.4-5.1c0.7,4.2,2.2,8.4,4.8,11.7c2.5,3.3,7.5,6.4,11.4,3.4
				c8.2-6.2-9.6-22.5,4.6-33.3c9.6-7.3,18.8-2.6,24.6,5c2.8,3.7,5,7.5,6.3,11.4L151.7,606.5z"/>
			<path class="st0" d="M171.8,626.1l-11.1-10.8l5.9-6.1l29.9,29.2l-5.9,6.1l-11.1-10.8l-31.8,32.6l-7.8-7.6L171.8,626.1z"/>
			<path class="st0" d="M211.8,649.8l9.9,7.2l-14.5,56.2l-9.7-7l3.5-12.8l-17.7-12.8l-11.1,7.3l-9.1-6.6L211.8,649.8z M210.3,662.1
				l-0.1-0.1l-19.4,13.5l12.8,9.3L210.3,662.1z"/>
			<path class="st0" d="M247.3,673.5l17,8.3c6.3,3.1,14.8,9.5,9.6,20.1c-2.8,5.8-8.7,7.9-15,6.1l-0.1,0.1c6.3,3.9,8.6,10.5,5.7,16.5
				c-6,12.2-17.9,8.7-24,5.7l-17-8.3L247.3,673.5z M237,719.2l4.6,2.2c4.5,2.2,10.6,3.8,13.3-1.9c3.1-6.3-1.6-9.8-6.4-12.2l-4.6-2.2
				L237,719.2z M247.4,697.9l4,1.9c4.1,2,9.6,3.6,12.1-1.4c2.8-5.6-2-8.5-6.4-10.6l-3.8-1.8L247.4,697.9z"/>
			<path class="st0" d="M292.8,694.2l10.3,3.3l-13.8,43.4l20,6.3l-2.6,8.1l-30.3-9.6L292.8,694.2z"/>
			<path class="st0" d="M332.6,705.5l10.6,2.1l-10.7,53l-10.6-2.1L332.6,705.5z"/>
			<path class="st0" d="M386.2,722.6c-3.3-1.8-7-2.9-10.8-3.2c-3.7-0.3-8.6,0.9-9.1,6.8c-0.8,9.3,23.1,7.4,21.6,25.4
				c-1,11.8-10.7,15.5-21.6,14.6c-5.9-0.5-8.4-1.5-13.6-3.2l1.8-9.6c3.5,2.3,7.7,4,11.9,4.3c4.1,0.3,9.7-1.3,10.2-6.1
				c0.9-10.3-23.1-8-21.6-25.8c1-12,10.7-15.6,20.2-14.8c4.6,0.4,8.9,1.4,12.7,3L386.2,722.6z"/>
			<path class="st0" d="M403.5,713.5l10.8-0.9l1.7,21.8l21.6-1.7l-1.7-21.8l10.8-0.9l4.3,53.9l-10.8,0.9l-1.9-23.6l-21.6,1.7
				l1.9,23.6l-10.8,0.9L403.5,713.5z"/>
			<path class="st0" d="M461.4,707.1l30.9-7.7l2.1,8.3l-20.4,5.1l3.2,12.9l18.7-4.7l2.1,8.3l-18.7,4.7l3.7,14.7l20.6-5.2l2.1,8.3
				l-31.1,7.8L461.4,707.1z"/>
			<path class="st0" d="M505.4,695.4l13.5-5.9c15.2-6.6,30.8-7.4,39.4,12.3c8.6,19.6-2.6,30.6-17.8,37.3l-13.5,5.9L505.4,695.4z
				 M533.5,732.7l5.5-2.4c8.3-3.6,13.6-13.3,8.9-24.1c-4.7-10.8-15.4-13.4-23.7-9.8l-5.5,2.4L533.5,732.7z"/>
			<path class="st0" d="M591.9,646.9l7.6-5.9l33.1,42.7l-8.6,6.6l-25.6-33l-2.7,11.5l-8.6-2.2L591.9,646.9z"/>
			<path class="st0" d="M647.9,657.3c2.9-1.2,5.6-2.7,8.1-5.3c6.5-6.8,2.4-15.1-3.2-20.9l-0.2,0c1,4.5-0.2,8-3.3,11.3
				c-7.1,7.4-15.6,6.9-22.8,0c-8.4-8.1-10.1-17.6-1.6-26.4c10.4-10.8,21.7-4.6,30.9,4.2c10.6,10.1,18.9,24.7,6.8,37.3
				c-2.7,2.8-5.8,5.1-9.3,6.9L647.9,657.3z M642.8,622.8c-3.7-3.5-8.4-5.1-12.1-1.2c-3.5,3.6-1.4,8.5,2,11.8
				c3.8,3.6,8.8,5.5,12.4,1.7C648.8,631.3,646.7,626.5,642.8,622.8z"/>
			<path class="st0" d="M671,575.5c-2.7,1.6-5.1,3.5-7.2,6.4c-5.4,7.6-0.2,15.2,6.2,20.2l0.2,0c-1.5-4.2-1-7.9,1.7-11.7
				c5.9-8.3,14.5-9.1,22.6-3.3c9.5,6.8,12.5,15.9,5.4,25.9c-8.7,12.2-20.8,7.7-31.1,0.3c-11.9-8.5-22.3-21.7-12.1-35.9
				c2.3-3.2,5-5.9,8.2-8.1L671,575.5z M681,608.9c4.2,3,9.1,3.8,12.2-0.5c2.9-4.1,0.2-8.6-3.7-11.4c-4.3-3.1-9.5-4.1-12.5,0.1
				C673.9,601.3,676.6,605.7,681,608.9z"/>
			<path class="st0" d="M711.7,574.8c2.4-2,4.6-4.2,6.2-7.4c4.3-8.3-2-15.1-9-19.1l-0.2,0.1c2.2,4,2.1,7.7,0.1,11.8
				c-4.7,9.1-13,11.1-21.9,6.6c-10.4-5.3-14.7-13.9-9.1-24.8c6.8-13.4,19.5-10.7,30.8-4.9c13,6.7,25.2,18.2,17.2,33.8
				c-1.8,3.5-4,6.5-6.9,9.2L711.7,574.8z M696.9,543.2c-4.5-2.3-9.5-2.4-12,2.3c-2.3,4.5,1.1,8.6,5.4,10.7c4.7,2.4,10,2.7,12.4-1.9
				C705,549.7,701.7,545.7,696.9,543.2z"/>
		</g>
		<path class="st0" d="M70.7,488.8c-4.8,0-8.6-3.9-8.6-8.6c0-4.8,3.9-8.6,8.6-8.6c4.8,0,8.6,3.9,8.6,8.6
			C79.3,484.9,75.5,488.8,70.7,488.8z"/>
		<path class="st0" d="M730,488.8c-4.8,0-8.6-3.9-8.6-8.6c0-4.8,3.9-8.6,8.6-8.6c4.8,0,8.6,3.9,8.6,8.6
			C738.7,484.9,734.8,488.8,730,488.8z"/>
		<g>
			<path class="st0" d="M31,409l0.6-21.1c0.2-7.8,2.8-19.4,16-19c7.2,0.2,12,5.2,13.1,12.4l0.2,0c1-8.2,6.7-13.6,14.1-13.4
				c15.2,0.4,17.1,14.1,16.8,21.7l-0.6,21.1L31,409z M55.6,397.6l0.1-4.9c0.1-5.1-0.8-11.4-7-11.6c-7-0.2-7.7,5.9-7.8,11.4l-0.1,4.7
				L55.6,397.6z M82,398.3l0.2-5.7c0.2-5.6-1-12.5-8-12.7c-7.9-0.2-9.2,6.1-9.4,12.2l-0.2,5.7L82,398.3z"/>
			<path class="st0" d="M38.9,325.4l3-13.3l64-9.8l-2.9,13.1l-14.6,2l-5.4,23.8l12.3,8.2l-2.8,12.2L38.9,325.4z M52.1,321.5l0,0.2
				l22.3,14l3.9-17.2L52.1,321.5z"/>
			<path class="st0" d="M54.6,269.2l5.3-11.9c5.3-11.8,11.1-26.1,26.4-19.3c6.5,2.9,9.9,9.6,7.7,17l0.2,0.1c1.6-2.9,5.3-3.3,8.3-3.3
				l25.5,0.7l-5.5,12.3l-20.1-1c-4.8-0.2-7,0.5-9.1,5.1l-1.6,3.5l22.9,10.1l-4.9,11L54.6,269.2z M83.1,268.6l1.6-3.6
				c2.4-5.4,4.4-12-2.5-15.1c-6.6-2.9-9.9,3-12.4,8.5l-1.6,3.6L83.1,268.6z"/>
			<path class="st0" d="M84,208.5l8.5-12.1l50.1,7.1l0.1-0.1l-36.9-25.9l6.6-9.5l49.3,34.6l-8.5,12.1l-50.1-7l-0.1,0.1l36.9,25.9
				l-6.6,9.5L84,208.5z"/>
			<path class="st0" d="M131.1,146.7l8.8-8.2l16.6,17.8l17.7-16.5L157.6,122l8.8-8.2l41.1,44.1l-8.8,8.2l-18-19.3L163,163.2l18,19.3
				l-8.8,8.2L131.1,146.7z"/>
			<path class="st0" d="M204.3,87.5l11.7-7l51.3,39.4l-11.5,6.9l-11.6-9.2l-20.9,12.6l2.6,14.5l-10.7,6.4L204.3,87.5z M216.2,94.4
				l-0.1,0.1l5.3,25.8l15.1-9.1L216.2,94.4z"/>
			<path class="st0" d="M255.7,60.1l12.3-4.4c12.2-4.4,26.6-10,32.2,5.7c2.4,6.7-0.1,13.8-6.9,17.4l0.1,0.2c3.2-0.9,6.1,1.6,8.1,3.7
				l17.1,18.9l-12.7,4.6l-13.2-15.2c-3.1-3.6-5.2-4.7-10-3l-3.7,1.3l8.5,23.5l-11.4,4.1L255.7,60.1z M275.8,80.2l3.7-1.3
				c5.6-2,11.7-5.1,9.2-12.2c-2.5-6.8-9-5.1-14.7-3.1l-3.7,1.3L275.8,80.2z"/>
			<path class="st0" d="M330.3,47.6l-17,3l-1.7-9.3l45.9-8.2l1.7,9.3l-17,3l9,49.9l-11.9,2.1L330.3,47.6z"/>
			<path class="st0" d="M412.1,30.7l12,1.2l-3.4,34.6c-1,10.2,1.6,17.2,10.8,18.2c9.2,0.9,13.1-5.5,14.1-15.7l3.4-34.6l12,1.2
				l-3.8,38.3c-1.6,16.1-11.3,21.8-26.7,20.3c-15.4-1.5-23.8-9-22.2-25.1L412.1,30.7z"/>
			<path class="st0" d="M488.4,41.2l14.1,4.5l8.2,49.9l0.2,0.1l13.7-42.9l11,3.5l-18.3,57.4l-14.1-4.5L495,59.2l-0.2-0.1l-13.7,42.9
				l-11-3.5L488.4,41.2z"/>
			<path class="st0" d="M557.9,66.8l10.8,5.4l-26.7,54l-10.8-5.4L557.9,66.8z"/>
			<path class="st0" d="M585.7,80.3l10.7,7.3l-14.1,47.7l0.1,0.1l39.4-30.3l9.9,6.8L580.8,150l-12.2-8.4L585.7,80.3z"/>
			<path class="st0" d="M647.5,126.3l25.2,25l-6.7,6.7l-16.7-16.5L639,152.1l15.3,15.1l-6.7,6.7l-15.3-15.1l-11.9,12l16.8,16.7
				l-6.7,6.7l-25.4-25.2L647.5,126.3z"/>
			<path class="st0" d="M688.8,170l7.5,10.6c7.5,10.5,16.8,22.9,3.2,32.6c-5.8,4.1-13.3,3.6-18.6-2l-0.1,0.1
				c1.7,2.8,0.1,6.3-1.4,8.8l-13.6,21.5l-7.8-11l11.1-16.8c2.7-4,3.2-6.3,0.2-10.4l-2.2-3.2l-20.4,14.5l-7-9.8L688.8,170z
				 M674.8,194.7l2.3,3.2c3.4,4.9,8.1,9.9,14.2,5.6c5.9-4.2,2.5-10-1-15l-2.3-3.2L674.8,194.7z"/>
			<path class="st0" d="M729.5,260c-0.2-4.1-1.1-8.4-2.9-12.2c-1.8-3.7-5.7-7.8-11.6-5c-9.4,4.5,5.9,26.4-12.3,35.1
				c-11.9,5.7-20.9-1.6-26.2-12.6c-2.8-5.9-3.3-8.9-4.6-14.9l10.3-3.7c-0.2,4.7,0.5,9.6,2.5,13.9c2,4.1,6.7,8.7,11.6,6.3
				c10.4-4.9-5.3-26.7,12.7-35.3c12.1-5.8,21.1,1.5,25.7,11.1c2.2,4.7,3.7,9.3,4.3,13.9L729.5,260z"/>
			<path class="st0" d="M748.5,279.4l3.8,11.5L695,309.6l-3.8-11.5L748.5,279.4z"/>
			<path class="st0" d="M751.7,326.6l-3.2-17l9.3-1.8l8.7,45.8l-9.3,1.8l-3.2-17l-49.9,9.5l-2.3-11.9L751.7,326.6z"/>
			<path class="st0" d="M732.1,390.8l36.1-22.6l0.2,14.1L743.3,397l25.5,14.1l0.2,12.8l-36.8-21l-23.8,0.4l-0.2-12.1L732.1,390.8z"
				/>
		</g>
		<path class="st0" d="M400.2,631.1c53.3-31.3,102.8-55.9,141.1-104c20.2-25.3,34.1-53.4,34.1-86.7v-29.6H400.1"/>
		<path class="st0" d="M400.2,216.2c0,0-139,24.7-163.3,24.7c-8.4,6.9-12.1,24.3-12,35.4c0.5,57,1.2,77.4-0.1,134.4h175.3"/>
		<path class="st1" d="M400.1,410.7H224.8v17c-0.9,40.5,13.3,74.3,38.7,104.6c37.8,45.1,85.3,68.3,136.7,98.8"/>
		<path class="st1" d="M400.1,410.7h175.3c0.1-61.9-0.1-74.7,0.2-136.7c0.1-9.4-3.3-25.8-10.3-31.7c-26.6,0-165.2-26.1-165.2-26.1"
			/>
		<line class="st3" x1="224.8" y1="410.7" x2="575.4" y2="410.7"/>
		<line class="st3" x1="400.1" y1="216.2" x2="400.1" y2="631.1"/>
		<g>
			<path class="st0" d="M360.3,508.9c1.8-0.9,3-2.7,3.1-4.7c0.1-2.8,0.1-7.3-0.6-13c-0.5-4.1-1.1-8.7-4-15.2
				c-3.5-8-7.8-12.1-7.9-12.7c0-0.2,3.5,1.3,6.1,4.2c2.5,2.8,4.3,6.3,4.3,6.1c0.3-1.3-1.7-6.7-2.5-8.2c-3.4-6.7-9.9-12.8-19.7-17.1
				c-17.5-7.7-38-4.6-47,2.6c-1,0.8-0.2,2.1-1.1,2.9c-10.8,9.1-15.6,24.2-17.3,29c-1.8,4.8,14,24.5,44.7,29.4
				c4.6,0.7,9.7,0.3,14.2,0c0.5,0,0.7-11.8-2.4-24.4c-7.2-29.3-34-33.3-31.4-34c0.6-0.1,27.6,0,37.9,31.1
				c4.2,12.7,3.8,28.8,4.3,28.8c4.4,0,9.6-1.8,13.4-2.8C356.8,510.3,358.8,509.5,360.3,508.9z"/>
			<path class="st0" d="M256.5,486.4c0.3-1.7,1-3.4,2.2-4.8c3.4-4.2,7.3-4.3,12.3-4.3c-0.1,0.3-2.2,5.4-2.3,5.7
				c-0.9,2.4-0.3,5.3,1.7,8.7c6,10.1,23.4,22.7,47.3,26.4c2,0.3,4.4,0.5,7.2,0.5c3.4,0,6.9-0.2,9.4-0.4l-0.2-0.1
				c0.6,1,3.8,1.7,5.7,1.7c0.2,0,1.2,0,1.3,0c3.7-0.2,8.7-1.2,15.2-3c11.5-3.2,12.7-8,12.7-9.4c0-0.8,0-1.3-0.1-5.4
				c3.6,0.3,15,5.5,13.6,15.1c-1.5,9.7-20.9,15.5-28.3,16.9c-18.2,3.4-45.1-0.1-62.4-6.9c-7.8-3-15.2-7.5-21.7-12.8
				c-6.6-5.4-12.1-12.5-13.7-21.1C256.1,490.9,256,488.6,256.5,486.4z"/>
		</g>
		<path class="st0" d="M486.5,258.9l-0.1-29.5l-7.3-1.6l0.1,31.2l-27.7,18.3l2-0.4c19.4-3.8,39.4-3.8,58.9,0l1.8,0.4L486.5,258.9z"
			/>
		<path class="st0" d="M493.1,315.5l14.2-8.6c4.2-2.5,6.7-7,6.7-11.9v-10.9l-1.8-0.4c-19.4-3.7-39.4-3.7-58.8,0.2l-2,0.4l0.1,11.4
			c0,4.4,2.2,8.6,5.8,11.2c5.7,4,13.5,9.6,13.8,9.9l2.6,12.6c1.1,3.2,4.3,5.1,8.5,5.1c9.3,0,16.7,8.5,15,18.1
			c-1.1,6.1-6,10.9-12,12.1c-9.7,1.8-18.1-5.6-18.1-14.9c0-0.7,0-1.9,0-2.8c0.4-4.2-1.7-7.3-4-8.6c-1.6-0.9-3.1-1.5-5.1-1.5
			c-1,0-4.8,0.2-5.1,3c-0.1,1,2.5,0.7,2.7,3.8c0.1,1.3-0.8,5.4-1,8.1c-0.3,3.8,0.2,7.7,1.4,11.1c3.2,9.1,14.2,17.3,26.2,17.3
			c16.8,0,30.4-13.7,30.4-30.4c0-13.7-9.3-25.6-22.1-29.3l1-3.6C492.2,316.6,492.8,316.1,493.1,315.5z M482.7,296.9
			c-2.4,0-4.3-1.9-4.3-4.3s1.9-4.3,4.3-4.3c2.4,0,4.3,1.9,4.3,4.3S485,296.9,482.7,296.9z"/>
		<path class="st0" d="M400.2,638.1l-3.1-1.8c-7.8-4.6-15.6-9.2-23.2-13.5c-42.3-24.4-82.3-47.5-115.1-86.6
			c-27.9-33.3-41-68.8-40.1-108.6c1.1-48.1,0.7-82.5,0.3-126.1c-0.1-8-0.2-16.3-0.2-25.1c-0.1-11.4,3.6-31.4,14.3-40.1l1.7-1.4h2.2
			c23.5,0,160.8-24.4,162.2-24.6l1.1-0.2l1.1,0.2c1.4,0.3,138.3,26,164,26h2.2l1.7,1.4c9.2,7.7,12.5,26.4,12.5,36.4
			c-0.2,40.2-0.2,72.5-0.2,106.7c0,18.6,0,37.9,0,59.6c0,31-11.6,60.6-35.4,90.5c-34.1,42.8-77,67.5-122.4,93.7
			c-6.7,3.9-13.5,7.8-20.4,11.8L400.2,638.1z M239.4,247c-5.4,6-8.5,19.4-8.4,29.3c0.1,8.8,0.2,17.1,0.2,25.1
			c0.4,43.7,0.8,78.2-0.3,126.5c-0.8,36.7,11.4,69.6,37.3,100.5c31.4,37.4,70.4,60,111.8,83.9c6.6,3.8,13.4,7.7,20.2,11.8
			c5.8-3.4,11.6-6.7,17.3-10c44.4-25.6,86.3-49.7,119-90.7c22.3-28,32.8-54.4,32.8-82.9c0-21.7,0-41,0-59.6c0-34.2,0-66.5,0.2-106.7
			c0-8.4-2.8-20.6-6.8-25.7c-30.8-1.3-148.9-23.4-162.6-26C386.5,224.8,268.3,245.7,239.4,247z"/>
		<g>
			<path class="st4" d="M271,278.8h59.1c16.3,0,32.3,5.3,32.3,23.2c0,12.9-6.9,19.8-19.4,23v0.3c13.1,1.8,21.2,12,21.2,21.4
				c0,23.7-19.1,26.1-38.7,26.1H271V278.8z M304.9,314.7h9c6.3,0,13.2-1.9,13.2-9c0-7-5.9-9.2-12.4-9.2h-9.8V314.7z M304.9,353.4
				h9.4c6.6,0,13.7-2.4,13.7-9.7c0-8.1-6.7-9.6-13.5-9.6h-9.7V353.4z"/>
		</g>
		<g>
			<path class="st4" d="M465.1,496.3c0,8.9,2.6,15.6,11.2,15.6c9.4,0,11.4-6.4,11.4-15.5l-0.1-55.9l35.3-0.1l0.1,55.2
				c0.1,30.4-18.6,40.5-47,40.5c-26.3,0.1-46.9-10.7-47-38.4l-0.1-57.1l36.1-0.1L465.1,496.3z"/>
		</g>
	</g>
</g>
<g>
</g>
<g>
</g>
<g>
</g>
<g>
</g>
<g>
</g>
<g>
</g>
<g>
</g>
<g>
</g>
<g>
</g>
<g>
</g>
<g>
</g>
<g>
</g>
<g>
</g>
<g>
</g>
<g>
</g>
</svg>
