<?xml version="1.0" encoding="utf-8"?>
<!-- Generator: Adobe Illustrator 27.4.1, SVG Export Plug-In . SVG Version: 6.00 Build 0)  -->
<svg version="1.1" id="Layer_1" xmlns="http://www.w3.org/2000/svg" xmlns:xlink="http://www.w3.org/1999/xlink" x="0px" y="0px"
	 viewBox="0 0 800 800" style="enable-background:new 0 0 800 800;" xml:space="preserve">
<style type="text/css">
	.st0{fill:#848482;}
	.st1{fill:#CC0033;stroke:#FFFFFF;stroke-width:6;stroke-miterlimit:10;}
	.st2{fill:#FFFFFF;}
	.st3{fill:none;stroke:#FFFFFF;stroke-width:1.769;stroke-miterlimit:10;}
	.st4{fill:#CC0033;}
</style>
<g>
	<circle class="st0" cx="400" cy="400" r="400"/>
	<circle class="st1" cx="400" cy="400" r="281.4"/>
	<g>
		<path class="st2" d="M115.2,539.6l15.6,28.3l-7.5,4.2L113,553.4l-11.8,6.5l9.5,17.1l-7.5,4.2l-9.5-17.1l-13.4,7.4l10.4,18.8
			l-7.5,4.2l-15.7-28.4L115.2,539.6z"/>
		<path class="st2" d="M148.6,609.1c-0.9-3.6-2.6-7.2-4.9-10.3c-2.3-3-6.5-5.9-11.3-2.2c-7.5,5.8,10.2,22.4-4.4,33.5
			c-9.5,7.3-18.9,2.5-25.6-6.3c-3.6-4.7-4.6-7.3-6.8-12.4l8.5-5.2c0.7,4.2,2.2,8.5,4.8,11.9c2.5,3.3,7.6,6.4,11.5,3.4
			c8.3-6.3-9.7-22.8,4.7-33.8c9.7-7.4,19-2.6,24.9,5.1c2.9,3.7,5,7.6,6.4,11.6L148.6,609.1z"/>
		<path class="st2" d="M168.9,629l-11.2-11l6-6.2l30.3,29.6l-6,6.2l-11.2-11l-32.2,33l-7.9-7.7L168.9,629z"/>
		<path class="st2" d="M209.4,653l10,7.3l-14.7,56.9l-9.8-7.1l3.5-12.9l-18-13l-11.2,7.4l-9.2-6.7L209.4,653z M207.9,665.4l-0.1-0.1
			L188.1,679l13,9.4L207.9,665.4z"/>
		<path class="st2" d="M245.4,677l17.2,8.4c6.3,3.1,15,9.6,9.7,20.4c-2.9,5.8-8.8,8-15.2,6.2l-0.1,0.1c6.4,3.9,8.8,10.7,5.8,16.7
			c-6.1,12.4-18.1,8.8-24.3,5.8l-17.2-8.4L245.4,677z M235,723.2l4.6,2.3c4.6,2.2,10.7,3.8,13.5-1.9c3.1-6.4-1.6-9.9-6.5-12.4
			l-4.6-2.3L235,723.2z M245.5,701.7l4,2c4.2,2,9.7,3.6,12.2-1.4c2.8-5.7-2-8.6-6.5-10.8l-3.8-1.9L245.5,701.7z"/>
		<path class="st2" d="M291.5,697.9l10.5,3.3L288,745.2l20.3,6.4l-2.6,8.2l-30.7-9.7L291.5,697.9z"/>
		<path class="st2" d="M331.8,709.4l10.8,2.2l-10.8,53.6L321,763L331.8,709.4z"/>
		<path class="st2" d="M386,726.7c-3.3-1.8-7.1-3-10.9-3.3c-3.7-0.3-8.7,0.9-9.2,6.8c-0.8,9.5,23.4,7.5,21.9,25.8
			c-1,12-10.8,15.7-21.9,14.8c-5.9-0.5-8.5-1.5-13.8-3.3l1.8-9.8c3.6,2.3,7.8,4,12.1,4.4c4.1,0.3,9.9-1.3,10.3-6.2
			c0.9-10.4-23.4-8.1-21.9-26.2c1-12.2,10.9-15.8,20.5-15c4.7,0.4,9,1.4,12.9,3.1L386,726.7z"/>
		<path class="st2" d="M403.6,717.4l10.9-0.9l1.7,22l21.9-1.7l-1.7-22l10.9-0.9l4.3,54.5l-10.9,0.9l-1.9-23.9l-21.9,1.7l1.9,23.9
			l-10.9,0.9L403.6,717.4z"/>
		<path class="st2" d="M462.2,711l31.3-7.8l2.1,8.4l-20.7,5.2l3.3,13.1l18.9-4.7l2.1,8.4l-18.9,4.7L484,753l20.8-5.2l2.1,8.4
			l-31.5,7.9L462.2,711z"/>
		<path class="st2" d="M506.7,699.1l13.7-6c15.4-6.7,31.2-7.5,39.9,12.4c8.7,19.9-2.6,31-18,37.7l-13.7,6L506.7,699.1z M535.2,736.9
			l5.6-2.4c8.4-3.7,13.8-13.5,9-24.4c-4.8-10.9-15.6-13.6-24-9.9l-5.6,2.4L535.2,736.9z"/>
		<path class="st2" d="M594.3,650.1l7.7-6l33.6,43.2l-8.7,6.7L601,660.7l-2.7,11.6l-8.7-2.3L594.3,650.1z"/>
		<path class="st2" d="M651,660.5c2.9-1.2,5.7-2.7,8.2-5.4c6.6-6.8,2.5-15.2-3.2-21.1l-0.2,0c1,4.5-0.2,8.1-3.4,11.4
			c-7.2,7.5-15.8,7-23.1,0c-8.5-8.2-10.2-17.8-1.6-26.7c10.5-11,22-4.7,31.2,4.2c10.7,10.3,19.1,25,6.9,37.8c-2.8,2.9-5.8,5.2-9.4,7
			L651,660.5z M645.9,625.6c-3.7-3.6-8.5-5.1-12.3-1.2c-3.5,3.7-1.4,8.6,2.1,12c3.8,3.7,8.9,5.5,12.6,1.7
			C651.9,634.2,649.8,629.4,645.9,625.6z"/>
		<path class="st2" d="M674.4,577.7c-2.7,1.6-5.2,3.5-7.3,6.5c-5.5,7.7-0.2,15.4,6.2,20.4l0.2,0c-1.6-4.3-1-8,1.7-11.8
			c6-8.4,14.6-9.2,22.9-3.3c9.6,6.9,12.7,16.1,5.5,26.2c-8.8,12.4-21.1,7.8-31.5,0.3c-12.1-8.6-22.6-22-12.3-36.4
			c2.3-3.3,5-6,8.3-8.2L674.4,577.7z M684.6,611.5c4.2,3,9.2,3.9,12.3-0.6c3-4.1,0.2-8.7-3.8-11.6c-4.3-3.1-9.6-4.2-12.7,0.1
			C677.3,603.8,680.1,608.3,684.6,611.5z"/>
		<path class="st2" d="M715.6,577c2.4-2,4.6-4.2,6.3-7.5c4.3-8.4-2-15.3-9.1-19.3l-0.2,0.1c2.2,4.1,2.2,7.8,0.1,11.9
			c-4.7,9.2-13.1,11.2-22.1,6.6c-10.5-5.4-14.9-14.1-9.2-25.2c6.9-13.5,19.7-10.8,31.1-4.9c13.2,6.7,25.5,18.4,17.5,34.2
			c-1.8,3.6-4.1,6.6-7,9.4L715.6,577z M700.6,545.1c-4.6-2.4-9.7-2.5-12.1,2.3c-2.3,4.5,1.1,8.7,5.4,10.9c4.7,2.4,10.1,2.7,12.5-2
			C708.9,551.6,705.5,547.6,700.6,545.1z"/>
	</g>
	<path class="st2" d="M66.5,489.9c-4.8,0-8.7-3.9-8.7-8.7s3.9-8.7,8.7-8.7c4.8,0,8.7,3.9,8.7,8.7S71.4,489.9,66.5,489.9z"/>
	<path class="st2" d="M734.2,489.9c-4.8,0-8.7-3.9-8.7-8.7s3.9-8.7,8.7-8.7c4.8,0,8.7,3.9,8.7,8.7S739,489.9,734.2,489.9z"/>
	<g>
		<path class="st2" d="M26.3,409.1l0.6-21.3c0.2-7.9,2.8-19.6,16.2-19.2c7.3,0.2,12.2,5.2,13.3,12.5l0.2,0c1-8.3,6.8-13.8,14.3-13.6
			c15.4,0.4,17.3,14.3,17.1,22l-0.6,21.3L26.3,409.1z M51.3,397.6l0.1-5c0.1-5.2-0.8-11.6-7.1-11.7c-7.1-0.2-7.8,6-7.9,11.6
			l-0.1,4.7L51.3,397.6z M78,398.3l0.2-5.8c0.2-5.7-1.1-12.6-8.1-12.8c-8-0.2-9.4,6.2-9.5,12.3l-0.2,5.8L78,398.3z"/>
		<path class="st2" d="M34.3,324.4l3-13.5l64.8-9.9l-3,13.2l-14.8,2l-5.4,24.1l12.5,8.3L88.6,361L34.3,324.4z M47.7,320.5l0,0.2
			l22.6,14.1l3.9-17.4L47.7,320.5z"/>
		<path class="st2" d="M50.3,267.6l5.4-12.1c5.3-12,11.3-26.5,26.8-19.6c6.6,2.9,10,9.7,7.8,17.2l0.2,0.1c1.6-2.9,5.4-3.3,8.4-3.4
			l25.8,0.7l-5.5,12.5l-20.4-1c-4.9-0.2-7.1,0.5-9.2,5.2l-1.6,3.6l23.2,10.3l-5,11.2L50.3,267.6z M79,267l1.6-3.7
			c2.4-5.5,4.4-12.2-2.5-15.3c-6.7-3-10,3-12.5,8.6l-1.6,3.7L79,267z"/>
		<path class="st2" d="M80,206.1l8.6-12.3l50.7,7.2l0.1-0.1l-37.3-26.2l6.7-9.6l49.9,35.1l-8.6,12.2l-50.7-7.1l-0.1,0.1l37.3,26.2
			l-6.7,9.6L80,206.1z"/>
		<path class="st2" d="M127.7,143.5l9-8.3l16.8,18l17.9-16.7l-16.8-18l9-8.3l41.6,44.6l-9,8.3l-18.2-19.6L160,160.2l18.2,19.6
			l-9,8.3L127.7,143.5z"/>
		<path class="st2" d="M201.8,83.5l11.8-7.1l52,39.9l-11.6,7l-11.7-9.3l-21.2,12.7l2.6,14.7l-10.9,6.5L201.8,83.5z M213.9,90.5
			l-0.1,0.1l5.4,26.1l15.3-9.2L213.9,90.5z"/>
		<path class="st2" d="M253.9,55.7l12.4-4.5c12.3-4.4,26.9-10.2,32.7,5.8c2.4,6.7-0.1,14-7,17.6l0.1,0.2c3.2-0.9,6.1,1.6,8.2,3.7
			l17.3,19.1l-12.8,4.6l-13.4-15.4c-3.2-3.7-5.3-4.8-10.1-3l-3.7,1.3l8.6,23.8l-11.5,4.2L253.9,55.7z M274.3,76.1l3.8-1.4
			c5.7-2,11.9-5.2,9.3-12.4c-2.5-6.9-9.1-5.2-14.9-3.1l-3.8,1.4L274.3,76.1z"/>
		<path class="st2" d="M329.4,43.1l-17.2,3.1l-1.7-9.5l46.5-8.3l1.7,9.5l-17.2,3.1l9.1,50.6l-12,2.2L329.4,43.1z"/>
		<path class="st2" d="M412.2,26.1l12.2,1.2l-3.5,35.1c-1,10.3,1.6,17.5,10.9,18.4c9.3,0.9,13.3-5.5,14.3-15.9l3.5-35.1l12.2,1.2
			L458,69.7c-1.6,16.3-11.5,22.1-27.1,20.5c-15.6-1.5-24.1-9.1-22.5-25.4L412.2,26.1z"/>
		<path class="st2" d="M489.6,36.7l14.3,4.6l8.3,50.5l0.2,0.1l13.9-43.5l11.2,3.6L518.8,110l-14.2-4.5l-8.4-50.6l-0.2-0.1
			l-13.9,43.5L471,94.8L489.6,36.7z"/>
		<path class="st2" d="M559.9,62.5l11,5.4l-27,54.7l-11-5.4L559.9,62.5z"/>
		<path class="st2" d="M588,76.2l10.8,7.4L584.6,132l0.1,0.1l39.9-30.7l10,6.9l-51.5,38.6l-12.4-8.5L588,76.2z"/>
		<path class="st2" d="M650.7,122.8l25.6,25.4l-6.8,6.8l-16.9-16.7L642,148.9l15.4,15.3l-6.8,6.8l-15.4-15.3l-12.1,12.2l17,16.9
			l-6.8,6.8l-25.7-25.5L650.7,122.8z"/>
		<path class="st2" d="M692.5,167.1l7.6,10.8c7.6,10.7,17,23.2,3.2,33c-5.8,4.2-13.5,3.7-18.8-2.1l-0.1,0.1c1.7,2.9,0.1,6.3-1.4,8.9
			l-13.8,21.8l-7.9-11.1l11.3-17c2.7-4.1,3.2-6.4,0.2-10.6l-2.3-3.2l-20.7,14.7l-7.1-10L692.5,167.1z M678.3,192.1l2.3,3.3
			c3.5,4.9,8.2,10,14.4,5.6c6-4.3,2.5-10.2-1-15.1l-2.3-3.3L678.3,192.1z"/>
		<path class="st2" d="M733.7,258.2c-0.2-4.2-1.1-8.5-3-12.3c-1.8-3.8-5.8-7.9-11.8-5c-9.5,4.6,6,26.8-12.5,35.6
			c-12.1,5.8-21.2-1.6-26.5-12.7c-2.9-6-3.4-9.1-4.6-15.1l10.4-3.7c-0.2,4.8,0.5,9.7,2.6,14.1c2,4.2,6.8,8.8,11.8,6.4
			c10.5-5-5.4-27.1,12.8-35.8c12.3-5.9,21.4,1.5,26,11.2c2.3,4.7,3.7,9.5,4.3,14.1L733.7,258.2z"/>
		<path class="st2" d="M752.9,277.9l3.8,11.6l-58,19l-3.8-11.6L752.9,277.9z"/>
		<path class="st2" d="M756.1,325.7l-3.3-17.2l9.4-1.8l8.8,46.4l-9.4,1.8l-3.3-17.2l-50.5,9.6l-2.3-12L756.1,325.7z"/>
		<path class="st2" d="M736.3,390.7l36.5-22.9l0.2,14.3L747.7,397l25.8,14.3l0.2,12.9l-37.2-21.3l-24.1,0.4l-0.2-12.2L736.3,390.7z"
			/>
	</g>
	<path class="st2" d="M400.2,634c53.9-31.7,104.1-56.6,142.9-105.3c20.4-25.6,34.5-54.1,34.6-87.8v-30H400.1"/>
	<path class="st2" d="M400.2,213.9c0,0-140.7,25-165.3,25c-8.6,7-12.3,24.6-12.2,35.8c0.5,57.7,1.2,78.4-0.1,136.1h177.5"/>
	<path class="st0" d="M400.1,410.9H222.6v17.2c-0.9,41.1,13.5,75.2,39.2,105.9c38.3,45.7,86.4,69.2,138.4,100"/>
	<path class="st0" d="M400.1,410.9h177.5c0.1-62.7-0.1-75.7,0.2-138.4c0.1-9.5-3.3-26.2-10.4-32.1c-26.9,0-167.2-26.5-167.2-26.5"/>
	<line class="st3" x1="222.6" y1="410.9" x2="577.6" y2="410.9"/>
	<line class="st3" x1="400.1" y1="213.9" x2="400.1" y2="634"/>
	<g>
		<path class="st2" d="M359.8,510.2c1.8-0.9,3-2.7,3.1-4.7c0.1-2.8,0.1-7.4-0.6-13.1c-0.6-4.2-1.1-8.8-4-15.4
			c-3.5-8.1-7.9-12.2-8-12.9c0-0.2,3.5,1.3,6.2,4.3c2.6,2.8,4.3,6.4,4.4,6.2c0.3-1.3-1.8-6.8-2.6-8.3c-3.4-6.8-10.1-13-19.9-17.3
			c-17.7-7.8-38.5-4.6-47.6,2.6c-1,0.8-0.2,2.2-1.1,3c-11,9.2-15.8,24.5-17.6,29.4c-1.8,4.9,14.1,24.8,45.2,29.7
			c4.6,0.7,9.8,0.3,14.4,0c0.5,0,0.7-11.9-2.5-24.7c-7.3-29.7-34.4-33.8-31.8-34.4c0.6-0.1,27.9,0,38.4,31.5
			c4.2,12.8,3.9,29.2,4.4,29.2c4.5,0,9.7-1.8,13.6-2.9C356.3,511.7,358.3,510.9,359.8,510.2z"/>
		<path class="st2" d="M254.6,487.5c0.3-1.8,1-3.4,2.2-4.9c3.4-4.2,7.4-4.4,12.4-4.4c-0.1,0.3-2.2,5.5-2.3,5.8
			c-0.9,2.4-0.3,5.3,1.7,8.8c6.1,10.3,23.7,23,47.9,26.8c2,0.3,4.4,0.5,7.3,0.5c3.5,0,7-0.2,9.5-0.4l-0.2-0.1
			c0.7,1.1,3.9,1.7,5.7,1.7c0.3,0,1.2,0,1.3,0c3.7-0.2,8.8-1.2,15.3-3c11.6-3.2,12.9-8.1,12.9-9.5c0-0.8,0-1.3-0.1-5.4
			c3.7,0.3,15.2,5.6,13.7,15.3c-1.5,9.8-21.1,15.7-28.6,17.1c-18.5,3.4-45.7-0.1-63.2-6.9c-7.9-3.1-15.4-7.6-21.9-13
			c-6.7-5.4-12.3-12.6-13.8-21.4C254.3,492.1,254.2,489.7,254.6,487.5z"/>
	</g>
	<path class="st2" d="M487.6,257.1l-0.1-29.9l-7.4-1.7l0.1,31.6l-28.1,18.5l2-0.4c19.7-3.8,39.9-3.8,59.6,0l1.9,0.4L487.6,257.1z"/>
	<path class="st2" d="M494.3,314.5l14.4-8.7c4.2-2.5,6.8-7.1,6.8-12v-11l-1.9-0.4c-19.7-3.8-39.9-3.7-59.5,0.2l-2.1,0.4l0.1,11.6
		c0,4.5,2.2,8.7,5.9,11.3c5.7,4.1,13.7,9.8,14,10l2.7,12.8c1.1,3.3,4.3,5.2,8.6,5.2c9.5,0,16.9,8.6,15.1,18.3
		c-1.1,6.1-6.1,11.1-12.2,12.2c-9.8,1.8-18.4-5.7-18.4-15.1c0-0.7-0.1-1.9,0-2.8c0.4-4.3-1.8-7.4-4.1-8.7c-1.6-1-3.2-1.5-5.1-1.5
		c-1.1,0-4.8,0.2-5.2,3.1c-0.1,1,2.5,0.7,2.8,3.8c0.1,1.3-0.8,5.5-1,8.2c-0.3,3.9,0.2,7.8,1.4,11.2c3.3,9.2,14.3,17.5,26.6,17.5
		c17,0,30.8-13.8,30.8-30.8c0-13.8-9.4-25.9-22.4-29.6l1-3.6C493.4,315.6,494,315,494.3,314.5z M483.7,295.6c-2.4,0-4.4-1.9-4.4-4.4
		c0-2.4,1.9-4.4,4.4-4.4c2.4,0,4.4,1.9,4.4,4.4C488.1,293.7,486.1,295.6,483.7,295.6z"/>
	<path class="st2" d="M400.2,641.2l-3.1-1.8c-7.9-4.7-15.8-9.3-23.5-13.7c-42.9-24.8-83.3-48.1-116.5-87.7
		c-28.2-33.7-41.5-69.7-40.6-110c1.1-48.7,0.8-83.5,0.3-127.7c-0.1-8.1-0.2-16.6-0.2-25.5c-0.1-11.5,3.7-31.8,14.4-40.6l1.7-1.4h2.2
		c23.8,0,162.9-24.7,164.3-24.9l1.1-0.2l1.1,0.2c1.4,0.3,140.1,26.4,166.1,26.4h2.2l1.7,1.4c9.3,7.8,12.7,26.8,12.6,36.9
		c-0.2,40.7-0.2,73.4-0.2,108c0,18.8,0,38.4,0,60.4c0,31.4-11.8,61.4-35.9,91.7c-34.5,43.3-78,68.3-124,94.8
		c-6.8,3.9-13.7,7.9-20.6,11.9L400.2,641.2z M237.4,245c-5.4,6-8.6,19.6-8.6,29.7c0.1,8.9,0.2,17.3,0.2,25.4
		c0.4,44.2,0.8,79.2-0.3,128.1c-0.8,37.2,11.5,70.5,37.8,101.8c31.8,37.9,71.3,60.7,113.2,84.9c6.7,3.9,13.6,7.8,20.5,11.9
		c5.9-3.4,11.8-6.8,17.6-10.2c44.9-25.9,87.4-50.4,120.5-91.9c22.6-28.4,33.2-55.1,33.2-84c0-22,0-41.5,0-60.3
		c0-34.6,0-67.3,0.2-108.1c0-8.5-2.9-20.8-6.9-26c-31.1-1.4-150.8-23.7-164.6-26.3C386.4,222.6,266.6,243.7,237.4,245z"/>
	<g>
		<path class="st4" d="M269.4,277.2h59.9c16.5,0,32.7,5.3,32.7,23.5c0,13.1-7,20.1-19.6,23.3v0.3c13.2,1.8,21.4,12.1,21.4,21.7
			c0,24-19.4,26.5-39.2,26.5h-55.2V277.2z M303.7,313.7h9.1c6.4,0,13.4-1.9,13.4-9.1c0-7.1-6-9.3-12.5-9.3h-10V313.7z M303.7,352.8
			h9.5c6.7,0,13.9-2.5,13.9-9.8c0-8.2-6.8-9.7-13.6-9.7h-9.8V352.8z"/>
	</g>
	<g>
		<path class="st4" d="M465.9,497.5c0,9,2.6,15.8,11.4,15.8c9.5,0,11.6-6.4,11.6-15.7l-0.1-56.6l35.7-0.1l0.1,55.9
			c0.1,30.8-18.9,41-47.6,41c-26.6,0.1-47.5-10.8-47.6-38.9l-0.1-57.8l36.6-0.1L465.9,497.5z"/>
	</g>
</g>
<g>
</g>
<g>
</g>
<g>
</g>
<g>
</g>
<g>
</g>
<g>
</g>
<g>
</g>
<g>
</g>
<g>
</g>
<g>
</g>
<g>
</g>
<g>
</g>
<g>
</g>
<g>
</g>
<g>
</g>
</svg>
