<?xml version="1.0" encoding="utf-8"?>
<!-- Generator: Adobe Illustrator 27.4.1, SVG Export Plug-In . SVG Version: 6.00 Build 0)  -->
<svg version="1.1" id="Layer_1" xmlns="http://www.w3.org/2000/svg" xmlns:xlink="http://www.w3.org/1999/xlink" x="0px" y="0px"
	 viewBox="0 0 800 800" style="enable-background:new 0 0 800 800;" xml:space="preserve">
<style type="text/css">
	.st0{fill:#FFFFFF;}
	.st1{fill:none;stroke:#FFFFFF;stroke-width:1.769;stroke-miterlimit:10;}
</style>
<g>
	<g>
		<path class="st0" d="M695,201c6-4.3,2.5-10.2-1-15.1l-2.3-3.3l-13.4,9.5l2.3,3.3C684.1,200.3,688.9,205.4,695,201z"/>
		<polygon class="st0" points="47.7,320.7 70.3,334.9 74.2,317.5 47.7,320.5 		"/>
		<path class="st0" d="M78.2,248c-6.7-3-10,3-12.5,8.6l-1.6,3.7l15,6.7l1.6-3.7C83.1,257.8,85.1,251.1,78.2,248z"/>
		<path class="st0" d="M287.3,62.4c-2.5-6.9-9.1-5.2-14.9-3.1l-3.8,1.4l5.6,15.5l3.8-1.4C283.7,72.7,289.9,69.5,287.3,62.4z"/>
		<polygon class="st0" points="234.4,107.5 213.9,90.5 213.8,90.6 219.2,116.7 		"/>
		<path class="st0" d="M44.3,380.8c-7.1-0.2-7.8,6-7.9,11.6l-0.1,4.7l15,0.4l0.1-5C51.6,387.4,50.6,381,44.3,380.8z"/>
		<g>
			<polygon class="st0" points="188.1,679 201,688.4 207.9,665.4 207.7,665.3 			"/>
			<path class="st0" d="M525.8,700.2l-5.6,2.4l15,34.3l5.6-2.4c8.4-3.7,13.8-13.5,9-24.4C545,699.2,534.2,696.5,525.8,700.2z"/>
			<path class="st0" d="M255.2,691.4l-3.8-1.9l-5.9,12.1l4,2c4.2,2,9.7,3.6,12.2-1.4C264.5,696.5,259.8,693.6,255.2,691.4z"/>
			<path class="st0" d="M633.6,624.4c-3.5,3.7-1.4,8.6,2.1,12c3.8,3.7,8.9,5.5,12.6,1.7c3.7-3.8,1.6-8.7-2.4-12.5
				C642.2,622,637.4,620.5,633.6,624.4z"/>
			<path class="st0" d="M246.6,711.3l-4.6-2.3l-7,14.2l4.6,2.3c4.6,2.2,10.7,3.8,13.5-1.9C256.2,717.2,251.5,713.7,246.6,711.3z"/>
			<path class="st0" d="M693.1,599.4c-4.3-3.1-9.6-4.2-12.7,0.1c-3.1,4.3-0.3,8.8,4.1,12c4.2,3,9.2,3.9,12.3-0.6
				C699.9,606.8,697.1,602.2,693.1,599.4z"/>
			<path class="st0" d="M700.6,545.1c-4.6-2.4-9.7-2.5-12.1,2.3c-2.3,4.5,1.1,8.7,5.4,10.9c4.7,2.4,10.1,2.7,12.5-2
				C708.9,551.6,705.5,547.6,700.6,545.1z"/>
			<path class="st0" d="M400,0C179.1,0,0,179.1,0,400s179.1,400,400,400s400-179.1,400-400S620.9,0,400,0z M773,382.1L747.7,397
				l25.8,14.3l0.2,12.9l-37.2-21.3l-24.1,0.4l-0.2-12.2l24.1-0.4l36.5-22.9L773,382.1z M771.1,353.1l-9.4,1.8l-3.3-17.2l-50.5,9.6
				l-2.3-12l50.5-9.6l-3.3-17.2l9.4-1.8L771.1,353.1z M756.7,289.5l-58,19l-3.8-11.6l58-19L756.7,289.5z M738.9,240.8
				c2.3,4.7,3.7,9.5,4.3,14.1l-9.6,3.3c-0.2-4.2-1.1-8.5-3-12.3c-1.8-3.8-5.8-7.9-11.8-5c-9.5,4.6,6,26.8-12.5,35.6
				c-12.1,5.8-21.2-1.6-26.5-12.7c-2.9-6-3.4-9.1-4.6-15.1l10.4-3.7c-0.2,4.8,0.5,9.7,2.6,14.1c2,4.2,6.8,8.8,11.8,6.4
				c10.5-5-5.4-27.1,12.8-35.8C725.2,223.7,734.3,231.1,738.9,240.8z M692.5,167.1l7.6,10.8c7.6,10.7,17,23.2,3.2,33
				c-5.8,4.2-13.5,3.7-18.8-2.1l-0.1,0.1c1.7,2.9,0.1,6.3-1.4,8.9l-13.8,21.8l-7.9-11.1l11.3-17c2.7-4.1,3.2-6.4,0.2-10.6l-2.3-3.2
				l-20.7,14.7l-7.1-10L692.5,167.1z M676.2,148.2l-6.8,6.8l-16.9-16.7L642,148.9l15.4,15.3l-6.8,6.8l-15.4-15.3l-12.1,12.2l17,16.9
				l-6.8,6.8l-25.7-25.5l43-43.3L676.2,148.2z M598.8,83.6L584.6,132l0.1,0.1l39.9-30.7l10,6.9l-51.5,38.6l-12.4-8.5L588,76.2
				L598.8,83.6z M570.8,68l-27,54.7l-11-5.4l27-54.7L570.8,68z M489.6,36.7l14.3,4.6l8.3,50.5l0.2,0.1l13.9-43.5l11.2,3.6L518.8,110
				l-14.2-4.5l-8.4-50.6l-0.2-0.1l-13.9,43.5L471,94.8L489.6,36.7z M408.4,64.9l3.8-38.8l12.2,1.2l-3.5,35.1
				c-1,10.3,1.6,17.5,10.9,18.4c9.3,0.9,13.3-5.5,14.3-15.9l3.5-35.1l12.2,1.2L458,69.7c-1.6,16.3-11.5,22.1-27.1,20.5
				C415.3,88.7,406.8,81.1,408.4,64.9z M357,28.4l1.7,9.5l-17.2,3.1l9.1,50.6l-12,2.2l-9.1-50.6l-17.2,3.1l-1.7-9.5L357,28.4z
				 M266.3,51.3c12.3-4.4,26.9-10.2,32.7,5.8c2.4,6.7-0.1,14-7,17.6l0.1,0.2c3.2-0.9,6.1,1.6,8.2,3.7l17.3,19.1l-12.8,4.6
				l-13.4-15.4c-3.2-3.7-5.3-4.8-10.1-3l-3.7,1.3l8.6,23.8l-11.5,4.2l-20.7-57.4L266.3,51.3z M213.7,76.4l52,39.9l-11.6,7l-11.7-9.3
				l-21.2,12.7l2.6,14.7l-10.9,6.5l-11.1-64.5L213.7,76.4z M136.6,135.2l16.8,18l17.9-16.7l-16.8-18l9-8.3l41.6,44.6l-9,8.3
				l-18.2-19.6L160,160.2l18.2,19.6l-9,8.3l-41.6-44.6L136.6,135.2z M88.6,193.8l50.7,7.2l0.1-0.1l-37.3-26.2l6.7-9.6l49.9,35.1
				l-8.6,12.2l-50.7-7.1l-0.1,0.1l37.3,26.2l-6.7,9.6L80,206.1L88.6,193.8z M55.6,255.5c5.3-12,11.3-26.5,26.8-19.6
				c6.6,2.9,10,9.7,7.8,17.2l0.2,0.1c1.6-2.9,5.4-3.3,8.4-3.4l25.8,0.7l-5.5,12.5l-20.4-1c-4.9-0.2-7.1,0.5-9.2,5.2l-1.6,3.6
				l23.2,10.3l-5,11.2l-55.8-24.7L55.6,255.5z M37.3,310.9l64.8-9.9l-3,13.2l-14.8,2l-5.4,24.1l12.5,8.3L88.6,361l-54.3-36.6
				L37.3,310.9z M26.9,387.8c0.2-7.9,2.8-19.6,16.2-19.2c7.3,0.2,12.2,5.2,13.3,12.5l0.2,0c1-8.3,6.8-13.8,14.3-13.6
				c15.4,0.4,17.3,14.3,17.1,22l-0.6,21.3l-61-1.7L26.9,387.8z M57.8,481.2c0-4.8,3.9-8.7,8.7-8.7c4.8,0,8.7,3.9,8.7,8.7
				c0,4.8-3.9,8.7-8.7,8.7C61.7,489.9,57.8,486,57.8,481.2z M90.6,590.4l-7.5,4.2l-15.7-28.4l47.9-26.5l15.6,28.3l-7.5,4.2
				L113,553.4l-11.8,6.5l9.5,17.1l-7.5,4.2l-9.5-17.1l-13.4,7.4L90.6,590.4z M128,630.2c-9.5,7.3-18.9,2.5-25.6-6.3
				c-3.6-4.7-4.6-7.3-6.8-12.4l8.5-5.2c0.7,4.2,2.2,8.5,4.8,11.9c2.5,3.3,7.6,6.4,11.5,3.4c8.3-6.3-9.7-22.8,4.7-33.8
				c9.7-7.4,19-2.6,24.9,5.1c2.9,3.7,5,7.6,6.4,11.6l-7.8,4.7c-0.9-3.6-2.6-7.2-4.9-10.3c-2.3-3-6.5-5.9-11.3-2.2
				C124.9,602.4,142.6,619,128,630.2z M136.7,662l32.2-33l-11.2-11l6-6.2l30.3,29.6l-6,6.2l-11.2-11l-32.2,33L136.7,662z
				 M204.7,717.2l-9.8-7.1l3.5-12.9l-18-13l-11.2,7.4l-9.2-6.7l49.4-31.8l10,7.3L204.7,717.2z M272.2,705.8c-2.9,5.8-8.8,8-15.2,6.2
				l-0.1,0.1c6.4,3.9,8.8,10.7,5.8,16.7c-6.1,12.4-18.1,8.8-24.3,5.8l-17.2-8.4l24-49.2l17.2,8.4C268.9,688.5,277.5,695,272.2,705.8
				z M305.7,759.8l-30.7-9.7l16.5-52.2l10.5,3.3L288,745.2l20.3,6.4L305.7,759.8z M331.7,765.2L321,763l10.8-53.6l10.8,2.2
				L331.7,765.2z M387.8,756.1c-1,12-10.8,15.7-21.9,14.8c-5.9-0.5-8.5-1.5-13.8-3.3l1.8-9.8c3.6,2.3,7.8,4,12.1,4.4
				c4.1,0.3,9.9-1.3,10.3-6.2c0.9-10.4-23.4-8.1-21.9-26.2c1-12.2,10.9-15.8,20.5-15c4.7,0.4,9,1.4,12.9,3.1l-1.8,8.9
				c-3.3-1.8-7.1-3-10.9-3.3c-3.7-0.3-8.7,0.9-9.2,6.8C365.1,739.7,389.3,737.8,387.8,756.1z M118.6,400
				c0-155.4,126-281.4,281.4-281.4c155.4,0,281.4,126,281.4,281.4S555.4,681.4,400,681.4C244.6,681.4,118.6,555.4,118.6,400z
				 M440.7,769.4l-1.9-23.9l-21.9,1.7l1.9,23.9l-10.9,0.9l-4.3-54.5l10.9-0.9l1.7,22l21.9-1.7l-1.7-22l10.9-0.9l4.3,54.5
				L440.7,769.4z M475.5,764.1L462.2,711l31.3-7.8l2.1,8.4l-20.7,5.2l3.3,13.1l18.9-4.7l2.1,8.4l-18.9,4.7L484,753l20.8-5.2l2.1,8.4
				L475.5,764.1z M542.3,743.2l-13.7,6l-21.9-50.1l13.7-6c15.4-6.7,31.2-7.5,39.9,12.4S557.7,736.5,542.3,743.2z M626.9,694
				L601,660.7l-2.7,11.6l-8.7-2.3l4.7-20l7.7-6l33.6,43.2L626.9,694z M665.8,660.7c-2.8,2.9-5.8,5.2-9.4,7l-5.4-7.2
				c2.9-1.2,5.7-2.7,8.2-5.4c6.6-6.8,2.5-15.2-3.2-21.1l-0.2,0c1,4.5-0.2,8.1-3.4,11.4c-7.2,7.5-15.8,7-23.1,0
				c-8.5-8.2-10.2-17.8-1.6-26.7c10.5-11,22-4.7,31.2,4.2C669.7,633.2,678.1,648,665.8,660.7z M703.5,615.7
				c-8.8,12.4-21.1,7.8-31.5,0.3c-12.1-8.6-22.6-22-12.3-36.4c2.3-3.3,5-6,8.3-8.2l6.4,6.3c-2.7,1.6-5.2,3.5-7.3,6.5
				c-5.5,7.7-0.2,15.4,6.2,20.4l0.2,0c-1.6-4.3-1-8,1.7-11.8c6-8.4,14.6-9.2,22.9-3.3C707.7,596.3,710.7,605.6,703.5,615.7z
				 M729.9,573c-1.8,3.6-4.1,6.6-7,9.4l-7.2-5.3c2.4-2,4.6-4.2,6.3-7.5c4.3-8.4-2-15.3-9.1-19.3l-0.2,0.1c2.2,4.1,2.2,7.8,0.1,11.9
				c-4.7,9.2-13.1,11.2-22.1,6.6c-10.5-5.4-14.9-14.1-9.2-25.2c6.9-13.5,19.7-10.8,31.1-4.9C725.6,545.5,737.9,557.2,729.9,573z
				 M734.2,489.9c-4.8,0-8.7-3.9-8.7-8.7c0-4.8,3.9-8.7,8.7-8.7c4.8,0,8.7,3.9,8.7,8.7C742.9,486,739,489.9,734.2,489.9z"/>
		</g>
		<path class="st0" d="M70,379.7c-8-0.2-9.4,6.2-9.5,12.3l-0.2,5.8l17.6,0.5l0.2-5.8C78.3,386.9,77.1,379.9,70,379.7z"/>
	</g>
	<line class="st1" x1="222.6" y1="410.9" x2="577.6" y2="410.9"/>
	<line class="st1" x1="400.1" y1="213.9" x2="400.1" y2="634"/>
	<path class="st0" d="M400.1,410.9H222.6v17.2c-0.9,41.1,13.5,75.2,39.2,105.9c38.3,45.7,86.4,69.2,138.4,100L400.1,410.9z
		 M272.1,483.9c1.8-4.8,6.6-20.2,17.6-29.4c0.9-0.8,0.1-2.2,1.1-3c9.2-7.3,29.9-10.4,47.6-2.6c9.8,4.3,16.5,10.5,19.9,17.3
		c0.8,1.6,2.9,7.1,2.6,8.3c-0.1,0.3-1.8-3.3-4.4-6.2c-2.7-2.9-6.2-4.5-6.2-4.3c0.1,0.7,4.4,4.8,8,12.9c2.9,6.6,3.5,11.2,4,15.4
		c0.8,5.7,0.8,10.3,0.6,13.1c-0.1,2-1.3,3.9-3.1,4.7c-1.4,0.7-3.5,1.5-6,2.2c-3.9,1.1-9.1,2.9-13.6,2.9c-0.5,0-0.1-16.4-4.4-29.2
		c-10.4-31.5-37.8-31.7-38.4-31.5c-2.6,0.6,24.5,4.7,31.8,34.4c3.1,12.8,3,24.7,2.5,24.7c-4.5,0.3-9.7,0.7-14.4,0
		C286.2,508.7,270.3,488.8,272.1,483.9z M382.3,518.5c-1.5,9.8-21.1,15.7-28.6,17.1c-18.5,3.4-45.7-0.1-63.2-6.9
		c-7.9-3.1-15.4-7.6-21.9-13c-6.7-5.4-12.3-12.6-13.8-21.4c-0.4-2.2-0.5-4.6-0.1-6.8c0.3-1.8,1-3.4,2.2-4.9
		c3.4-4.2,7.4-4.4,12.4-4.4c-0.1,0.3-2.2,5.5-2.3,5.8c-0.9,2.4-0.3,5.3,1.7,8.8c6.1,10.3,23.7,23,47.9,26.8c2,0.3,4.4,0.5,7.3,0.5
		c3.4,0,6.9-0.2,9.5-0.4c0,0-0.1-0.1-0.1-0.1l0.2,0.1c0,0,0,0-0.1,0c0.8,1,3.8,1.6,5.6,1.6c0.3,0,1.2,0,1.3,0
		c3.7-0.2,8.8-1.2,15.3-3c11.6-3.2,12.9-8.1,12.9-9.5c0-0.8,0-1.3-0.1-5.4C372.2,503.5,383.7,508.8,382.3,518.5z"/>
	<g>
		<path class="st0" d="M577.9,272.5c0.1-9.5-3.3-26.2-10.4-32.1c-11.9,0-45.8-5.1-80-10.9l0.1,27.7l28,18.6l-1.9-0.4
			c-19.7-3.9-39.9-3.9-59.6,0l-2,0.4l28.1-18.5l-0.1-29c-40.8-7-79.9-14.3-79.9-14.3l-0.1,197h177.5
			C577.7,348.1,577.5,335.2,577.9,272.5z M515.6,293.8c0,4.9-2.6,9.5-6.8,12l-14.4,8.7c-0.3,0.6-0.9,1.1-1.6,1.5l-1,3.6
			c13,3.7,22.4,15.8,22.4,29.6c0,17-13.8,30.8-30.8,30.8c-12.2,0-23.3-8.3-26.6-17.5c-1.2-3.5-1.7-7.3-1.4-11.2
			c0.2-2.7,1.1-6.9,1-8.2c-0.2-3.1-2.9-2.9-2.8-3.8c0.4-2.8,4.1-3.1,5.2-3.1c2,0,3.5,0.5,5.1,1.5c2.3,1.3,4.5,4.4,4.1,8.7
			c-0.1,0.9,0,2.1,0,2.8c0,9.5,8.6,17,18.4,15.1c6.1-1.2,11-6.1,12.2-12.2c1.8-9.8-5.7-18.3-15.1-18.3c-4.3,0-7.5-1.9-8.6-5.2
			l-2.7-12.8c-0.4-0.3-8.3-5.9-14-10c-3.7-2.6-5.8-6.8-5.9-11.3l-0.1-11.6l2.1-0.4c19.6-3.9,39.9-4,59.5-0.2l1.9,0.4V293.8z"/>
		<path class="st0" d="M483.7,286.9c-2.4,0-4.4,1.9-4.4,4.4c0,2.4,1.9,4.4,4.4,4.4c2.4,0,4.4-1.9,4.4-4.4
			C488.1,288.8,486.1,286.9,483.7,286.9z"/>
	</g>
	<path class="st0" d="M400.2,641.2l-3.1-1.8c-7.9-4.7-15.8-9.3-23.5-13.7c-42.9-24.8-83.3-48.1-116.5-87.7
		c-28.2-33.7-41.5-69.7-40.6-110c1.1-48.7,0.8-83.5,0.3-127.7c-0.1-8.1-0.2-16.6-0.2-25.5c-0.1-11.5,3.7-31.8,14.4-40.6l1.7-1.4h2.2
		c23.8,0,162.9-24.7,164.3-24.9l1.1-0.2l1.1,0.2c1.4,0.3,140.1,26.4,166.1,26.4h2.2l1.7,1.4c9.3,7.8,12.7,26.8,12.6,36.9
		c-0.2,40.7-0.2,73.4-0.2,108c0,18.8,0,38.4,0,60.4c0,31.4-11.8,61.4-35.9,91.7c-34.5,43.3-78,68.3-124,94.8
		c-6.8,3.9-13.7,7.9-20.6,11.9L400.2,641.2z M237.4,245c-5.4,6-8.6,19.6-8.6,29.7c0.1,8.9,0.2,17.3,0.2,25.4
		c0.4,44.2,0.8,79.2-0.3,128.1c-0.8,37.2,11.5,70.5,37.8,101.8c31.8,37.9,71.3,60.7,113.2,84.9c6.7,3.9,13.6,7.8,20.5,11.9
		c5.9-3.4,11.8-6.8,17.6-10.2c44.9-25.9,87.4-50.4,120.5-91.9c22.6-28.4,33.2-55.1,33.2-84c0-22,0-41.5,0-60.3
		c0-34.6,0-67.3,0.2-108.1c0-8.5-2.9-20.8-6.9-26c-31.1-1.4-150.8-23.7-164.6-26.3C386.4,222.6,266.6,243.7,237.4,245z"/>
	<g>
		<path class="st0" d="M269.4,277.2h59.9c16.5,0,32.7,5.3,32.7,23.5c0,13.1-7,20.1-19.6,23.3v0.3c13.2,1.8,21.4,12.1,21.4,21.7
			c0,24-19.4,26.5-39.2,26.5h-55.2V277.2z M303.7,313.7h9.1c6.4,0,13.4-1.9,13.4-9.1c0-7.1-6-9.3-12.5-9.3h-10V313.7z M303.7,352.8
			h9.5c6.7,0,13.9-2.5,13.9-9.8c0-8.2-6.8-9.7-13.6-9.7h-9.8V352.8z"/>
	</g>
	<g>
		<path class="st0" d="M465.9,497.5c0,9,2.6,15.8,11.4,15.8c9.5,0,11.6-6.4,11.6-15.7l-0.1-56.6l35.7-0.1l0.1,55.9
			c0.1,30.8-18.9,41-47.6,41c-26.6,0.1-47.5-10.8-47.6-38.9l-0.1-57.8l36.6-0.1L465.9,497.5z"/>
	</g>
</g>
</svg>
